Coordinates
version=1
nRows=19
nColumns=24
inDegrees=yes

Units are S.I. units (second, meters, Newtons, ...)
Angles are in degrees.

endheader
time	pelvis_tilt	pelvis_list	pelvis_rotation	pelvis_tx	pelvis_ty	pelvis_tz	hip_flexion_r	hip_adduction_r	hip_rotation_r	knee_angle_r	ankle_angle_r	subtalar_angle_r	mtp_angle_r	hip_flexion_l	hip_adduction_l	hip_rotation_l	knee_angle_l	ankle_angle_l	subtalar_angle_l	mtp_angle_l	lumbar_extension	lumbar_bending	lumbar_rotation
      4.00000000	      4.95544078	     -2.70355750	     -0.16849377	     -1.00145749	      1.04456094	     -0.25530225	    -17.15347647	      5.80057703	    -10.25002548	    -16.26845995	      8.63650948	     -9.31720555	      0.00000000	     13.57015612	     -0.45176585	     -2.27613304	     -2.30842660	     -2.32781810	    -14.74519268	      0.00000000	    -21.51024271	      0.54122283	      0.73513841
      4.01000000	      5.16217633	     -2.12186069	     -0.05354600	     -0.98796329	      1.04381440	     -0.25716297	    -17.34471580	      4.87123660	    -11.21735556	    -17.70570808	      8.19867185	     -8.61067193	      0.00000000	     13.46666300	      0.36945905	     -1.83271125	     -3.65042993	     -2.87705173	    -15.87752877	      0.00000000	    -21.43054563	      0.05015664	      0.39611991
      4.02000000	      5.28281633	     -1.47875014	      0.08155412	     -0.97433283	      1.04322160	     -0.25913016	    -17.36163993	      3.84744978	    -12.22043555	    -19.29742282	      7.48408585	     -8.00837242	      0.00000000	     13.45469396	      1.24841896	     -1.29279585	     -5.10914312	     -3.50089955	    -17.16659613	      0.00000000	    -21.23488948	     -0.49573995	      0.03593854
      4.03000000	      5.39682886	     -0.77380391	      0.27036947	     -0.96062903	      1.04291042	     -0.26119152	    -17.29450578	      2.75423455	    -13.20622789	    -21.01290494	      6.30170001	     -7.70042744	      0.00000000	     13.45888018	      2.18886549	     -0.76886710	     -6.66046976	     -3.93300658	    -18.34996133	      0.00000000	    -21.02790278	     -1.09109804	     -0.40335471
      4.04000000	      5.49156716	     -0.01022482	      0.48785717	     -0.94692819	      1.04287035	     -0.26326082	    -17.10403401	      1.59226539	    -14.13084342	    -22.88252893	      4.60728556	     -7.79942882	      0.00000000	     13.51359478	      3.16938707	     -0.53499046	     -8.31417123	     -3.89135795	    -19.02486039	      0.00000000	    -20.80784716	     -1.75631489	     -0.85977311
      4.05000000	      5.55876732	      0.74086066	      0.73420790	     -0.93325159	      1.04306255	     -0.26539368	    -16.76197317	      0.42783111	    -14.95569385	    -24.92375359	      2.25120795	     -8.22240451	      0.00000000	     13.50361283	      4.15271837	     -0.06982291	     -9.84212322	     -3.69130938	    -19.83566489	      0.00000000	    -20.56072174	     -2.39630249	     -1.32251268
      4.06000000	      5.61037266	      1.50583546	      0.98155476	     -0.91965770	      1.04345772	     -0.26747521	    -16.27081203	     -0.76210596	    -15.62956523	    -27.12809495	     -0.66539470	     -9.04509715	      0.00000000	     13.45262068	      5.13471703	      0.19165595	    -11.29033152	     -3.07403476	    -20.25476693	      0.00000000	    -20.31492022	     -3.06830888	     -1.76738288
      4.07000000	      5.61751811	      2.24732108	      1.17090379	     -0.90618982	      1.04399357	     -0.26941772	    -15.57843883	     -1.94016635	    -16.02202080	    -29.48598625	     -4.18641936	    -10.32067174	      0.00000000	     13.32804814	      6.07054763	      0.34454281	    -12.53390209	     -2.19954785	    -20.40490722	      0.00000000	    -20.03884715	     -3.74611256	     -2.11789931
      4.08000000	      5.57047277	      2.95463704	      1.25235914	     -0.89289535	      1.04461919	     -0.27114786	    -14.65410915	     -3.09814843	    -16.06441439	    -31.98908049	     -8.12814994	    -11.92441426	      0.00000000	     13.12063494	      6.93638870	      0.35103426	    -13.51729278	     -1.15991231	    -20.33746576	      0.00000000	    -19.72628994	     -4.43206704	     -2.32470989
      4.09000000	      5.46135309	      3.61943997	      1.18282226	     -0.87981021	      1.04529168	     -0.27258805	    -13.47281599	     -4.20941729	    -15.66875590	    -34.62063630	    -12.23007058	    -13.70931121	      0.00000000	     12.82935724	      7.71442391	      0.20722142	    -14.20407361	      0.00248939	    -20.07703821	      0.00000000	    -19.36918536	     -5.12990878	     -2.37283664
      4.10000000	      5.30171883	      4.23503900	      0.97069167	     -0.86699557	      1.04598567	     -0.27374876	    -12.04230576	     -5.25624785	    -14.91059857	    -37.36022439	    -16.24853421	    -15.58008481	      0.00000000	     12.46474334	      8.39817220	     -0.09949721	    -14.61123463	      1.08934285	    -19.74991189	      0.00000000	    -18.99435096	     -5.81906708	     -2.27376246
      4.11000000	      5.11739007	      4.81734234	      0.61811551	     -0.85447763	      1.04668693	     -0.27462075	    -10.39748142	     -6.23080152	    -13.83623902	    -40.17954851	    -19.94407195	    -17.49173344	      0.00000000	     12.03820047	      8.99903258	     -0.63954125	    -14.79542293	      2.19373748	    -19.26659764	      0.00000000	    -18.63276796	     -6.51285997	     -2.07134202
      4.12000000	      4.90662279	      5.34603748	      0.10673301	     -0.84226890	      1.04737766	     -0.27521468	     -8.54186347	     -7.08063812	    -12.43108893	    -43.04791816	    -23.23974798	    -19.50860904	      0.00000000	     11.53619963	      9.52401249	     -1.18288285	    -14.71818321	      3.00301060	    -18.98642806	      0.00000000	    -18.27171003	     -7.18275727	     -1.71040976
      4.13000000	      4.73061368	      5.84326161	     -0.47851823	     -0.83038247	      1.04808824	     -0.27563373	     -6.59593683	     -7.81097995	    -10.89845569	    -45.89857489	    -26.12870145	    -21.74346550	      0.00000000	     10.97080869	      9.99490670	     -1.87877613	    -14.52263592	      3.80943991	    -18.59692402	      0.00000000	    -18.00025454	     -7.82506686	     -1.37369950
      4.14000000	      4.60110141	      6.29808277	     -1.10411983	     -0.81879577	      1.04882061	     -0.27596471	     -4.61338083	     -8.40298627	     -9.31906833	    -48.67675280	    -28.64815531	    -24.27177057	      0.00000000	     10.34129024	     10.42426405	     -2.60302723	    -14.24130605	      4.52529879	    -18.20593292	      0.00000000	    -17.82293747	     -8.40925865	     -1.07954413
      4.15000000	      4.53726977	      6.70195229	     -1.71211684	     -0.80748006	      1.04960173	     -0.27630865	     -2.67023884	     -8.85250582	     -7.80174862	    -51.31600263	    -30.83874750	    -27.12866948	      0.00000000	      9.64652574	     10.81978734	     -3.29621091	    -13.92501138	      5.16595800	    -17.83819950	      0.00000000	    -17.76302189	     -8.90977647	     -0.90897111
      4.16000000	      4.52449049	      7.02040005	     -2.24254967	     -0.79640487	      1.05043076	     -0.27675750	     -0.80863656	     -9.13476193	     -6.43282322	    -53.74877346	    -32.67144835	    -30.34782629	      0.00000000	      8.91311687	     11.15982635	     -3.86696801	    -13.62095992	      5.74496754	    -17.51511632	      0.00000000	    -17.80463249	     -9.27108943	     -0.88903924
      4.17000000	      4.55985601	      7.25819083	     -2.67091790	     -0.78549260	      1.05133619	     -0.27737404	      0.93890826	     -9.28502275	     -5.25582655	    -55.93167967	    -34.11688790	    -33.66868734	      0.00000000	      8.12093737	     11.46304506	     -4.19928159	    -13.30928270	      6.31702929	    -17.24226256	      0.00000000	    -17.93311501	     -9.49382367	     -1.02692338
      4.18000000	      4.60063734	      7.39525623	     -2.97067899	     -0.77474540	      1.05227252	     -0.27817496	      2.59445008	     -9.30607974	     -4.30756989	    -57.83669544	    -34.89056156	    -36.92944204	      0.00000000	      7.33522042	     11.69811399	     -4.33961210	    -13.03541459	      6.77280078	    -17.12205614	      0.00000000	    -18.10084067	     -9.55001891	     -1.33671947
